<svg width="440" height="280" viewBox="0 0 440 280" xmlns="http://www.w3.org/2000/svg">
  <defs>
    <linearGradient id="scene" x1="0" y1="0" x2="1" y2="1">
      <stop offset="0" stop-color="#2A211A"/>
      <stop offset="0.6" stop-color="#3C2C20"/>
      <stop offset="1" stop-color="#21130c"/>
    </linearGradient>
    <linearGradient id="bg" x1="0" y1="0" x2="1" y2="1">
      <stop offset="0" stop-color="#B98A60"/>
      <stop offset="0.55" stop-color="#7B5638"/>
      <stop offset="1" stop-color="#4A3324"/>
    </linearGradient>
    <linearGradient id="pad" x1="0" y1="0" x2="0" y2="1">
      <stop offset="0" stop-color="#F7EEE2"/>
      <stop offset="1" stop-color="#E7D3BB"/>
    </linearGradient>
    <symbol id="paw" viewBox="0 0 128 128">
      <rect x="4" y="4" width="120" height="120" rx="28" fill="url(#bg)"/>
      <ellipse cx="64" cy="98" rx="34" ry="9" fill="#2c1d13" opacity="0.18"/>
      <g fill="url(#pad)">
        <circle cx="37" cy="52" r="9"/><circle cx="53.5" cy="40" r="9.5"/>
        <circle cx="74.5" cy="40" r="9.5"/><circle cx="91" cy="52" r="9"/>
      </g>
      <path d="M64 57 C 85 57, 97 71, 97 85 C 97 100, 83 108, 64 108 C 45 108, 31 100, 31 85 C 31 71, 43 57, 64 57 Z" fill="url(#pad)"/>
      <path d="M57 73 L57 99 L82 86 Z" fill="#5A3A26" stroke="#5A3A26" stroke-width="4" stroke-linejoin="round"/>
    </symbol>
    <symbol id="pawline" viewBox="0 0 128 128">
      <g fill="#ffffff">
        <circle cx="37" cy="52" r="9"/><circle cx="53.5" cy="40" r="9.5"/>
        <circle cx="74.5" cy="40" r="9.5"/><circle cx="91" cy="52" r="9"/>
        <path d="M64 57 C 85 57, 97 71, 97 85 C 97 100, 83 108, 64 108 C 45 108, 31 100, 31 85 C 31 71, 43 57, 64 57 Z"/>
      </g>
    </symbol>
  </defs>

  <rect width="440" height="280" fill="url(#scene)"/>
  <use href="#pawline" x="300" y="150" width="200" height="200" opacity="0.05"/>

  <use href="#paw" x="174" y="38" width="92" height="92"/>

  <text x="220" y="186" text-anchor="middle" font-family="Helvetica, Arial, sans-serif" font-size="40" font-weight="800" fill="#F7EEE2">PAWP<tspan dx="12" fill="#C99A6E">connect</tspan></text>
  <text x="220" y="222" text-anchor="middle" font-family="Helvetica, Arial, sans-serif" font-size="18" font-weight="500" fill="#D9C4AC">Watch YouTube together, in sync</text>
</svg>
